<svg width="518" height="313" viewBox="0 0 518 313" fill="none" xmlns="http://www.w3.org/2000/svg">
<path fill-rule="evenodd" clip-rule="evenodd" d="M76.5 85C73.464 85 71 87.016 71 89.5V119.943C71 126.274 66.3965 131.602 60 133.609V89.5C60 87.016 57.536 85 54.5 85C51.464 85 49 87.016 49 89.5V133.609C42.6035 131.602 38 126.274 38 119.943V89.5C38 87.016 35.536 85 32.5 85C29.464 85 27 87.016 27 89.5V121C27 130.216 33.8035 138.087 43.5 141.561V220C43.5 224.657 47.845 228.447 53.389 228.906L54.5 229L55.611 228.906C61.155 228.447 65.5 224.657 65.5 220V141.565C75.1965 138.087 82 130.216 82 121V89.5C82 87.016 79.536 85 76.5 85Z" fill="black"/>
<path d="M145.471 122.524C145.471 127.244 144.586 131.197 142.816 134.383C141.085 137.569 138.588 139.968 135.323 141.581C132.058 143.194 128.105 144 123.464 144H111.723V101.874H124.703C128.951 101.874 132.629 102.661 135.736 104.234C138.843 105.807 141.243 108.128 142.934 111.196C144.625 114.225 145.471 118.001 145.471 122.524ZM139.866 122.701C139.866 118.964 139.237 115.896 137.978 113.497C136.759 111.098 134.949 109.328 132.55 108.187C130.19 107.007 127.319 106.417 123.936 106.417H117.033V139.457H122.756C128.459 139.457 132.727 138.061 135.559 135.268C138.43 132.436 139.866 128.247 139.866 122.701ZM166.326 111.786C169.04 111.786 171.36 112.376 173.288 113.556C175.254 114.736 176.749 116.408 177.772 118.571C178.834 120.695 179.365 123.193 179.365 126.064V129.191H157.712C157.79 132.77 158.695 135.504 160.426 137.392C162.196 139.241 164.654 140.165 167.801 140.165C169.807 140.165 171.577 139.988 173.111 139.634C174.684 139.241 176.297 138.69 177.949 137.982V142.525C176.336 143.233 174.743 143.744 173.17 144.059C171.596 144.413 169.728 144.59 167.565 144.59C164.575 144.59 161.92 143.98 159.6 142.761C157.318 141.542 155.529 139.732 154.231 137.333C152.972 134.894 152.343 131.925 152.343 128.424C152.343 124.963 152.913 121.993 154.054 119.515C155.234 117.037 156.866 115.129 158.951 113.792C161.075 112.455 163.533 111.786 166.326 111.786ZM166.267 116.034C163.789 116.034 161.822 116.84 160.367 118.453C158.951 120.026 158.105 122.229 157.83 125.061H173.937C173.937 123.252 173.661 121.678 173.111 120.341C172.56 119.004 171.714 117.961 170.574 117.214C169.472 116.427 168.037 116.034 166.267 116.034ZM222.107 111.786C225.687 111.786 228.361 112.71 230.131 114.559C231.901 116.368 232.786 119.318 232.786 123.409V144H227.653V123.645C227.653 121.167 227.122 119.299 226.06 118.04C225.038 116.781 223.425 116.152 221.222 116.152C218.154 116.152 215.952 117.037 214.614 118.807C213.316 120.577 212.667 123.153 212.667 126.536V144H207.534V123.645C207.534 121.993 207.298 120.616 206.826 119.515C206.354 118.374 205.646 117.529 204.702 116.978C203.758 116.427 202.539 116.152 201.044 116.152C198.92 116.152 197.249 116.604 196.029 117.509C194.81 118.374 193.925 119.653 193.374 121.344C192.863 123.035 192.607 125.12 192.607 127.598V144H187.415V112.376H191.604L192.371 116.683H192.666C193.335 115.582 194.141 114.677 195.085 113.969C196.069 113.222 197.15 112.671 198.33 112.317C199.51 111.963 200.73 111.786 201.988 111.786C204.427 111.786 206.453 112.219 208.065 113.084C209.717 113.949 210.917 115.287 211.664 117.096H211.959C213.021 115.287 214.457 113.949 216.266 113.084C218.115 112.219 220.062 111.786 222.107 111.786ZM270.049 128.129C270.049 130.764 269.695 133.105 268.987 135.15C268.318 137.156 267.335 138.867 266.037 140.283C264.778 141.699 263.225 142.781 261.376 143.528C259.567 144.236 257.541 144.59 255.299 144.59C253.214 144.59 251.287 144.236 249.517 143.528C247.747 142.781 246.213 141.699 244.915 140.283C243.617 138.867 242.594 137.156 241.847 135.15C241.139 133.105 240.785 130.764 240.785 128.129C240.785 124.628 241.375 121.678 242.555 119.279C243.735 116.84 245.426 114.992 247.629 113.733C249.832 112.435 252.447 111.786 255.476 111.786C258.347 111.786 260.865 112.435 263.028 113.733C265.231 114.992 266.942 116.84 268.161 119.279C269.42 121.678 270.049 124.628 270.049 128.129ZM246.154 128.129C246.154 130.607 246.469 132.77 247.098 134.619C247.767 136.428 248.789 137.825 250.166 138.808C251.543 139.791 253.293 140.283 255.417 140.283C257.541 140.283 259.291 139.791 260.668 138.808C262.045 137.825 263.048 136.428 263.677 134.619C264.346 132.77 264.68 130.607 264.68 128.129C264.68 125.612 264.346 123.468 263.677 121.698C263.008 119.928 261.986 118.571 260.609 117.627C259.272 116.644 257.521 116.152 255.358 116.152C252.133 116.152 249.792 117.214 248.337 119.338C246.882 121.462 246.154 124.392 246.154 128.129ZM313.828 101.874C317.329 101.874 320.2 102.326 322.442 103.231C324.724 104.096 326.415 105.414 327.516 107.184C328.618 108.954 329.168 111.176 329.168 113.851C329.168 116.093 328.755 117.961 327.929 119.456C327.103 120.951 326.041 122.15 324.743 123.055C323.485 123.92 322.147 124.609 320.731 125.12L332.295 144H326.1L315.893 126.595H307.515V144H302.205V101.874H313.828ZM313.533 106.476H307.515V122.111H313.828C316.11 122.111 317.978 121.816 319.433 121.226C320.889 120.597 321.951 119.692 322.619 118.512C323.327 117.332 323.681 115.857 323.681 114.087C323.681 112.238 323.308 110.763 322.56 109.662C321.852 108.561 320.751 107.754 319.256 107.243C317.762 106.732 315.854 106.476 313.533 106.476ZM350.413 111.786C353.127 111.786 355.447 112.376 357.375 113.556C359.341 114.736 360.836 116.408 361.859 118.571C362.921 120.695 363.452 123.193 363.452 126.064V129.191H341.799C341.877 132.77 342.782 135.504 344.513 137.392C346.283 139.241 348.741 140.165 351.888 140.165C353.894 140.165 355.664 139.988 357.198 139.634C358.771 139.241 360.384 138.69 362.036 137.982V142.525C360.423 143.233 358.83 143.744 357.257 144.059C355.683 144.413 353.815 144.59 351.652 144.59C348.662 144.59 346.007 143.98 343.687 142.761C341.405 141.542 339.616 139.732 338.318 137.333C337.059 134.894 336.43 131.925 336.43 128.424C336.43 124.963 337 121.993 338.141 119.515C339.321 117.037 340.953 115.129 343.038 113.792C345.162 112.455 347.62 111.786 350.413 111.786ZM350.354 116.034C347.876 116.034 345.909 116.84 344.454 118.453C343.038 120.026 342.192 122.229 341.917 125.061H358.024C358.024 123.252 357.748 121.678 357.198 120.341C356.647 119.004 355.801 117.961 354.661 117.214C353.559 116.427 352.124 116.034 350.354 116.034ZM384.187 144.59C381.395 144.59 378.897 144.02 376.694 142.879C374.531 141.738 372.82 139.968 371.561 137.569C370.342 135.17 369.732 132.102 369.732 128.365C369.732 124.471 370.381 121.305 371.679 118.866C372.977 116.427 374.728 114.638 376.93 113.497C379.172 112.356 381.709 111.786 384.541 111.786C386.154 111.786 387.708 111.963 389.202 112.317C390.697 112.632 391.916 113.025 392.86 113.497L391.267 117.804C390.323 117.45 389.222 117.116 387.963 116.801C386.705 116.486 385.525 116.329 384.423 116.329C382.299 116.329 380.549 116.781 379.172 117.686C377.796 118.591 376.773 119.928 376.104 121.698C375.436 123.468 375.101 125.671 375.101 128.306C375.101 130.823 375.436 132.967 376.104 134.737C376.773 136.507 377.776 137.844 379.113 138.749C380.451 139.654 382.122 140.106 384.128 140.106C385.859 140.106 387.373 139.929 388.671 139.575C390.009 139.221 391.228 138.788 392.329 138.277V142.879C391.267 143.43 390.087 143.843 388.789 144.118C387.531 144.433 385.997 144.59 384.187 144.59ZM405.042 112.376V144H399.85V112.376H405.042ZM402.505 100.517C403.292 100.517 403.98 100.792 404.57 101.343C405.199 101.854 405.514 102.68 405.514 103.821C405.514 104.922 405.199 105.748 404.57 106.299C403.98 106.85 403.292 107.125 402.505 107.125C401.64 107.125 400.912 106.85 400.322 106.299C399.732 105.748 399.437 104.922 399.437 103.821C399.437 102.68 399.732 101.854 400.322 101.343C400.912 100.792 401.64 100.517 402.505 100.517ZM430.106 111.786C434 111.786 437.127 113.143 439.487 115.857C441.886 118.571 443.086 122.662 443.086 128.129C443.086 131.708 442.535 134.737 441.434 137.215C440.372 139.654 438.858 141.502 436.891 142.761C434.964 143.98 432.682 144.59 430.047 144.59C428.434 144.59 426.999 144.374 425.74 143.941C424.481 143.508 423.4 142.958 422.495 142.289C421.63 141.581 420.882 140.814 420.253 139.988H419.899C419.978 140.657 420.056 141.502 420.135 142.525C420.214 143.548 420.253 144.433 420.253 145.18V158.16H415.061V112.376H419.309L420.017 116.683H420.253C420.882 115.778 421.63 114.952 422.495 114.205C423.4 113.458 424.462 112.868 425.681 112.435C426.94 112.002 428.415 111.786 430.106 111.786ZM429.162 116.152C427.038 116.152 425.327 116.565 424.029 117.391C422.731 118.178 421.787 119.377 421.197 120.99C420.607 122.603 420.292 124.648 420.253 127.126V128.129C420.253 130.725 420.528 132.928 421.079 134.737C421.63 136.546 422.554 137.923 423.852 138.867C425.189 139.811 426.999 140.283 429.28 140.283C431.207 140.283 432.781 139.752 434 138.69C435.259 137.628 436.183 136.192 436.773 134.383C437.402 132.534 437.717 130.43 437.717 128.07C437.717 124.451 437.009 121.56 435.593 119.397C434.216 117.234 432.073 116.152 429.162 116.152ZM463.573 111.786C466.287 111.786 468.607 112.376 470.535 113.556C472.501 114.736 473.996 116.408 475.019 118.571C476.081 120.695 476.612 123.193 476.612 126.064V129.191H454.959C455.037 132.77 455.942 135.504 457.673 137.392C459.443 139.241 461.901 140.165 465.048 140.165C467.054 140.165 468.824 139.988 470.358 139.634C471.931 139.241 473.544 138.69 475.196 137.982V142.525C473.583 143.233 471.99 143.744 470.417 144.059C468.843 144.413 466.975 144.59 464.812 144.59C461.822 144.59 459.167 143.98 456.847 142.761C454.565 141.542 452.776 139.732 451.478 137.333C450.219 134.894 449.59 131.925 449.59 128.424C449.59 124.963 450.16 121.993 451.301 119.515C452.481 117.037 454.113 115.129 456.198 113.792C458.322 112.455 460.78 111.786 463.573 111.786ZM463.514 116.034C461.036 116.034 459.069 116.84 457.614 118.453C456.198 120.026 455.352 122.229 455.077 125.061H471.184C471.184 123.252 470.908 121.678 470.358 120.341C469.807 119.004 468.961 117.961 467.821 117.214C466.719 116.427 465.284 116.034 463.514 116.034ZM160.103 177.874L148.893 220H143.524L135.323 192.388C135.087 191.562 134.851 190.716 134.615 189.851C134.379 188.986 134.163 188.16 133.966 187.373C133.769 186.586 133.592 185.918 133.435 185.367C133.317 184.777 133.238 184.344 133.199 184.069C133.16 184.344 133.081 184.777 132.963 185.367C132.884 185.918 132.747 186.586 132.55 187.373C132.353 188.16 132.137 189.005 131.901 189.91C131.704 190.775 131.468 191.66 131.193 192.565L123.228 220H117.859L106.708 177.874H112.254L118.803 203.598C119.039 204.503 119.255 205.407 119.452 206.312C119.649 207.177 119.826 208.043 119.983 208.908C120.18 209.734 120.337 210.54 120.455 211.327C120.573 212.114 120.691 212.881 120.809 213.628C120.927 212.841 121.045 212.035 121.163 211.209C121.32 210.383 121.497 209.537 121.694 208.672C121.891 207.767 122.107 206.863 122.343 205.958C122.579 205.053 122.815 204.168 123.051 203.303L130.485 177.874H135.972L143.701 203.48C143.976 204.385 144.232 205.309 144.468 206.253C144.704 207.158 144.92 208.043 145.117 208.908C145.314 209.773 145.471 210.619 145.589 211.445C145.746 212.232 145.884 212.959 146.002 213.628C146.12 212.645 146.277 211.622 146.474 210.56C146.671 209.459 146.907 208.318 147.182 207.138C147.457 205.958 147.752 204.758 148.067 203.539L154.557 177.874H160.103ZM176.927 187.786C179.641 187.786 181.962 188.376 183.889 189.556C185.856 190.736 187.351 192.408 188.373 194.571C189.435 196.695 189.966 199.193 189.966 202.064V205.191H168.313C168.392 208.77 169.297 211.504 171.027 213.392C172.797 215.241 175.256 216.165 178.402 216.165C180.408 216.165 182.178 215.988 183.712 215.634C185.286 215.241 186.898 214.69 188.55 213.982V218.525C186.938 219.233 185.345 219.744 183.771 220.059C182.198 220.413 180.33 220.59 178.166 220.59C175.177 220.59 172.522 219.98 170.201 218.761C167.92 217.542 166.13 215.732 164.832 213.333C163.574 210.894 162.944 207.925 162.944 204.424C162.944 200.963 163.515 197.993 164.655 195.515C165.835 193.037 167.468 191.129 169.552 189.792C171.676 188.455 174.135 187.786 176.927 187.786ZM176.868 192.034C174.39 192.034 172.424 192.84 170.968 194.453C169.552 196.026 168.707 198.229 168.431 201.061H184.538C184.538 199.252 184.263 197.678 183.712 196.341C183.162 195.004 182.316 193.961 181.175 193.214C180.074 192.427 178.638 192.034 176.868 192.034ZM203.209 186.075C203.209 187.412 203.17 188.671 203.091 189.851C203.052 190.992 202.993 191.896 202.914 192.565H203.209C204.114 191.228 205.353 190.107 206.926 189.202C208.499 188.297 210.525 187.845 213.003 187.845C216.936 187.845 220.083 189.222 222.443 191.975C224.842 194.689 226.042 198.76 226.042 204.188C226.042 207.807 225.491 210.835 224.39 213.274C223.328 215.713 221.814 217.542 219.847 218.761C217.88 219.98 215.599 220.59 213.003 220.59C210.525 220.59 208.499 220.138 206.926 219.233C205.353 218.328 204.114 217.247 203.209 215.988H202.796L201.734 220H198.017V175.16H203.209V186.075ZM212.118 192.152C209.876 192.152 208.106 192.585 206.808 193.45C205.51 194.276 204.586 195.574 204.035 197.344C203.484 199.075 203.209 201.297 203.209 204.011V204.247C203.209 208.141 203.838 211.13 205.097 213.215C206.395 215.26 208.775 216.283 212.236 216.283C215.068 216.283 217.172 215.241 218.549 213.156C219.965 211.071 220.673 208.062 220.673 204.129C220.673 200.156 219.965 197.167 218.549 195.161C217.172 193.155 215.029 192.152 212.118 192.152ZM254.907 211.268C254.907 213.313 254.395 215.024 253.373 216.401C252.35 217.778 250.895 218.82 249.007 219.528C247.119 220.236 244.877 220.59 242.281 220.59C240.078 220.59 238.17 220.413 236.558 220.059C234.984 219.705 233.588 219.213 232.369 218.584V213.864C233.627 214.493 235.142 215.083 236.912 215.634C238.721 216.145 240.55 216.401 242.399 216.401C245.034 216.401 246.942 215.988 248.122 215.162C249.302 214.297 249.892 213.156 249.892 211.74C249.892 210.953 249.675 210.245 249.243 209.616C248.81 208.987 248.023 208.357 246.883 207.728C245.781 207.099 244.188 206.391 242.104 205.604C240.058 204.817 238.308 204.031 236.853 203.244C235.397 202.457 234.276 201.513 233.49 200.412C232.703 199.311 232.31 197.895 232.31 196.164C232.31 193.489 233.391 191.424 235.555 189.969C237.757 188.514 240.629 187.786 244.169 187.786C246.096 187.786 247.886 187.983 249.538 188.376C251.229 188.73 252.802 189.241 254.258 189.91L252.488 194.04C251.622 193.647 250.698 193.312 249.715 193.037C248.771 192.722 247.807 192.486 246.824 192.329C245.84 192.132 244.837 192.034 243.815 192.034C241.691 192.034 240.058 192.388 238.918 193.096C237.816 193.765 237.266 194.689 237.266 195.869C237.266 196.734 237.521 197.482 238.033 198.111C238.544 198.701 239.39 199.291 240.57 199.881C241.789 200.432 243.402 201.1 245.408 201.887C247.414 202.634 249.125 203.401 250.541 204.188C251.957 204.975 253.038 205.938 253.786 207.079C254.533 208.18 254.907 209.577 254.907 211.268ZM267.74 188.376V220H262.548V188.376H267.74ZM265.203 176.517C265.99 176.517 266.678 176.792 267.268 177.343C267.898 177.854 268.212 178.68 268.212 179.821C268.212 180.922 267.898 181.748 267.268 182.299C266.678 182.85 265.99 183.125 265.203 183.125C264.338 183.125 263.61 182.85 263.02 182.299C262.43 181.748 262.135 180.922 262.135 179.821C262.135 178.68 262.43 177.854 263.02 177.343C263.61 176.792 264.338 176.517 265.203 176.517ZM288.32 216.342C289.107 216.342 289.913 216.283 290.739 216.165C291.565 216.008 292.234 215.85 292.745 215.693V219.646C292.194 219.921 291.408 220.138 290.385 220.295C289.362 220.492 288.379 220.59 287.435 220.59C285.783 220.59 284.249 220.315 282.833 219.764C281.456 219.174 280.335 218.171 279.47 216.755C278.605 215.339 278.172 213.353 278.172 210.796V192.388H273.688V189.91L278.231 187.845L280.296 181.119H283.364V188.376H292.509V192.388H283.364V210.678C283.364 212.605 283.816 214.041 284.721 214.985C285.665 215.89 286.865 216.342 288.32 216.342ZM311.291 187.786C314.005 187.786 316.325 188.376 318.253 189.556C320.219 190.736 321.714 192.408 322.737 194.571C323.799 196.695 324.33 199.193 324.33 202.064V205.191H302.677C302.755 208.77 303.66 211.504 305.391 213.392C307.161 215.241 309.619 216.165 312.766 216.165C314.772 216.165 316.542 215.988 318.076 215.634C319.649 215.241 321.262 214.69 322.914 213.982V218.525C321.301 219.233 319.708 219.744 318.135 220.059C316.561 220.413 314.693 220.59 312.53 220.59C309.54 220.59 306.885 219.98 304.565 218.761C302.283 217.542 300.494 215.732 299.196 213.333C297.937 210.894 297.308 207.925 297.308 204.424C297.308 200.963 297.878 197.993 299.019 195.515C300.199 193.037 301.831 191.129 303.916 189.792C306.04 188.455 308.498 187.786 311.291 187.786ZM311.232 192.034C308.754 192.034 306.787 192.84 305.332 194.453C303.916 196.026 303.07 198.229 302.795 201.061H318.902C318.902 199.252 318.626 197.678 318.076 196.341C317.525 195.004 316.679 193.961 315.539 193.214C314.437 192.427 313.002 192.034 311.232 192.034Z" fill="black"/>
</svg>
